<svg xmlns="http://www.w3.org/2000/svg" viewBox="0 0 500 500"><g id="freepik--background-complete--inject-285"><path d="M460.43,192.78H352.76s10.67-29.16,27.1-29.16,21.58,20.13,21.58,20.13,11.09-10.94,20.19-10.94,17,14.46,17,14.46S451.52,179.49,460.43,192.78Z" style="fill:#ebebeb"></path><path d="M217.51,349.89h-122s12.1-33.05,30.72-33.05,24.46,22.81,24.46,22.81,12.56-12.39,22.89-12.39,19.29,16.38,19.29,16.38S207.42,334.83,217.51,349.89Z" style="fill:#ebebeb;opacity:0.30000000000000004"></path><path d="M409.6,89H359.28s11.25-16.29,20.11-16.29,11.47,10.86,11.47,10.86,6.25-5.07,12-4.17S409.6,89,409.6,89Z" style="fill:#ebebeb;opacity:0.30000000000000004"></path><path d="M150.67,236.91H39.57s15.21-34,31.49-36.09,24.06,25.24,24.06,25.24,10.49-9.67,18.75-9.67,14.62,12.73,14.62,12.73S145,220.4,150.67,236.91Z" style="fill:#ebebeb"></path><path d="M117,80.89H50.82s11.37-21.71,23.71-22S93.36,75.3,93.36,75.3,112.55,59.89,117,80.89Z" style="fill:#ebebeb;opacity:0.30000000000000004"></path><path d="M361.85,443.14h-66.2s11.37-21.71,23.71-22,18.82,16.43,18.82,16.43S357.37,422.14,361.85,443.14Z" style="fill:#ebebeb"></path><path d="M405.32,277.9H339.11s11.37-21.71,23.71-22,18.82,16.43,18.82,16.43S400.84,256.9,405.32,277.9Z" style="fill:#ebebeb"></path><path d="M151,197.89H106.35s7.68-14.66,16-14.87,12.71,11.09,12.71,11.09S148,183.71,151,197.89Z" style="fill:#ebebeb"></path><path d="M416.9,401.62H372.21s7.68-14.66,16-14.87,12.7,11.09,12.7,11.09S413.88,387.44,416.9,401.62Z" style="fill:#ebebeb;opacity:0.30000000000000004"></path></g><g id="freepik--character-1--inject-285"><path d="M238.2,277.91c.06,6.11,2.67,29.48,6.55,33.52s14.58,10.39,18.79,11.4c2,.49,8.31-16.75,6.26-17.67-2.23-1-13.11-4.32-14.37-5.43s-7.77-15.12-12.06-22.68C240.8,272.53,238.17,274.47,238.2,277.91Z" style="fill:#ad6359"></path><path d="M260,321.51c3.21,1.84,16,4.6,18.59,4.75s10,.05,10.35-1.91-1.87-2.11-1.87-2.11,3.45-.54,3.28-2.54c-.13-1.6-3.2-2-3.2-2s3.75-.79,3.33-2.76c-.39-1.79-3.79-1.35-3.79-1.35s3.07-1,2.37-2.63c-.85-2-6.15-.3-9-.68-.64-.08-14.74-6.62-14.74-6.62Z" style="fill:#ad6359"></path><path d="M286.74,313.47c-4.1.86-5.82,1.1-9.73.08-.07,0-.12.09,0,.12,3.73,1.34,5.79,1.21,9.84,0C287,313.59,286.93,313.43,286.74,313.47Z" style="fill:#263238"></path><path d="M287.11,317.7c-4.17.93-6.21.71-10.37-.05-.06,0-.09.08,0,.1,4,1.09,6.42,1.55,10.46.08C287.35,317.76,287.3,317.66,287.11,317.7Z" style="fill:#263238"></path><path d="M286.84,322.2a19.24,19.24,0,0,1-10.34-.69.08.08,0,0,0-.06.14,13.75,13.75,0,0,0,10.41.68C287.1,322.26,287.1,322.17,286.84,322.2Z" style="fill:#263238"></path><path d="M265.31,303.69s4.84.45,7.14.55,8.87-.52,10,1.1c1.28,1.82-4.21,4.21-8.33,4.07,0,0-2.19,6.4-6.15,6.45-.86,0-5-1.66-5.4-2.53Z" style="fill:#ad6359"></path><path d="M273.71,309.54c-.77,2.52-2.7,5.41-5.23,6.1a.06.06,0,1,0,0,.12c2.82-.37,5.08-3.69,5.63-6C274.23,309.33,273.9,308.89,273.71,309.54Z" style="fill:#263238"></path><path d="M267.87,303.57l-5.26,19.69s-16.09-7-19-11.38-6.54-22.82-6.35-33,6.34-3.34,7.22-1.66,11,21.71,11.55,22.14S267.87,303.57,267.87,303.57Z" style="fill:#FD653E"></path><path d="M263.27,303.67c-.18.53-.39,1-.55,1.56s-.31,1-.46,1.54c-.3,1.05-.58,2.1-.87,3.15-.58,2.1-1.14,4.21-1.65,6.33-.14.61-.28,1.21-.43,1.81a13.07,13.07,0,0,0-.35,1.74c0,.05.05.05.07,0a12.07,12.07,0,0,0,.53-1.57l.46-1.54c.32-1,.62-2.09.91-3.14.57-2.06,1.13-4.14,1.67-6.22.15-.6.3-1.2.44-1.8s.23-1.22.36-1.83C263.42,303.63,263.3,303.58,263.27,303.67Z" style="fill:#263238"></path><path d="M263.13,321.31l-.52,1.95s-16.09-7-19-11.38-6.54-22.82-6.35-33c.1-5.25,1.77-6,3.49-5.22Z" style="opacity:0.1"></path><path d="M284.17,473.77c-1.43.46-42.33-.07-43.88-1.08-.59-.37-.86-6.34-1-13.55v-.23c0-1.49-.05-3-.05-4.57,0-.21,0-.43,0-.64l2-21.22,27.36.27-2.7,21,0,.84L265.7,459v.45s15.56,7.2,17.14,8.49S285.61,473.31,284.17,473.77Z" style="fill:#ad6359"></path><path d="M284.17,473.77c-1.43.46-42.33-.07-43.88-1.08-.59-.37-.86-6.34-1-13.55v-.23c0-1.49-.05-3-.05-4.57,0-.21,0-.43,0-.64l26.65.07,0,.84L265.7,459v.45s15.56,7.2,17.14,8.49S285.61,473.31,284.17,473.77Z" style="fill:#ebebeb"></path><path d="M284.45,473.87c-1.46.47-42.92-.08-44.49-1.1-.6-.38-.87-6.43-1-13.74l26.73.28s15.78,7.31,17.38,8.61S285.9,473.41,284.45,473.87Z" style="fill:#FD653E"></path><path d="M259.29,473.82c-9.69-.22-18.62-.59-19.33-1.05s-.87-6.43-1-13.74l6,.06Z" style="opacity:0.1"></path><path d="M283.87,472.21c-6.94-.26-35-.67-41.88-.4-.06,0-.06,0,0,0,6.88.41,34.93.59,41.88.47C284,472.32,284,472.21,283.87,472.21Z" style="fill:#263238"></path><path d="M280.44,466.4a5.57,5.57,0,0,0-4.18,1.64,5.4,5.4,0,0,0-1.61,3.69s.08,0,.09,0a6.45,6.45,0,0,1,5.7-5.25A0,0,0,0,0,280.44,466.4Z" style="fill:#263238"></path><path d="M268.39,460c-2.78-.08-6,.86-7.78,3.11-.07.09.06.18.14.14a38.92,38.92,0,0,1,7.68-2.91A.17.17,0,0,0,268.39,460Z" style="fill:#263238"></path><path d="M270.53,460.9c-2.78-.07-6,.86-7.78,3.12-.07.08.06.18.14.14a38.71,38.71,0,0,1,7.68-2.92A.17.17,0,0,0,270.53,460.9Z" style="fill:#263238"></path><path d="M272.66,461.77c-2.78-.08-6,.86-7.78,3.11-.06.09.06.19.14.14a39,39,0,0,1,7.69-2.91A.17.17,0,0,0,272.66,461.77Z" style="fill:#263238"></path><path d="M274.8,462.63c-2.78-.07-6,.87-7.78,3.12-.07.09.06.18.14.14a38.3,38.3,0,0,1,7.68-2.91A.18.18,0,0,0,274.8,462.63Z" style="fill:#263238"></path><path d="M243.85,465.23c-3.12,0-3.18,4.82,0,4.85S247,465.26,243.85,465.23Z" style="fill:#263238"></path><path d="M271.5,452.65c-1.4-1.18-3.19-.07-4.07,1.13a14.59,14.59,0,0,0-2.62,7.08.07.07,0,0,0,.08.08.34.34,0,0,0,.5.24c2-1.35,4.3-2.54,5.83-4.45C272.11,455.61,272.81,453.77,271.5,452.65Zm-3.5,5.87c-1,.68-2,1.32-2.9,2,.52-1.38,1-2.78,1.62-4.1a17.87,17.87,0,0,1,1-1.87c.62-.91,3.38-3.2,3.62-.17C271.51,456.09,269.16,457.7,268,458.52Z" style="fill:#263238"></path><path d="M257.88,461.8c2.42.41,4.93-.25,7.31-.59a.34.34,0,0,0,.22-.5.08.08,0,0,0,0-.12,14.71,14.71,0,0,0-6.69-3.51c-1.46-.3-3.54.07-3.78,1.88S256.47,461.57,257.88,461.8Zm-1.66-1.6c-1.85-2.41,1.74-2.56,2.8-2.29a14.14,14.14,0,0,1,2,.69,42.67,42.67,0,0,1,3.95,2c-1.18.09-2.34.29-3.52.43C260.07,461.15,257.24,461.53,256.22,460.2Z" style="fill:#263238"></path><path d="M267.5,459.05H238s5.93-68.81,5.7-70c-.3-1.54-2-8.5-4.35-17.6l-2.32-9.06c-2.2-8.56-4.62-17.92-6.73-26.06-3.17-12.2-5.64-21.67-5.64-21.67h25s2.91,9.22,6.58,21.23c6,19.5,14,46.34,14.74,52.87C272.27,399.29,267.5,459.05,267.5,459.05Z" style="fill:#263238"></path><path d="M266.19,454c-4.5-.09-3.2-.13-7.7-.17-2.21,0-16.68-.15-18.73.19,0,0,0,.09,0,.09,2.05.35,16.52.22,18.73.2,4.5-.05,3.2-.08,7.7-.18A.07.07,0,1,0,266.19,454Z" style="fill:#37474f"></path><path d="M249.28,384.84c-1-4.26-2.41-8.43-3.66-12.61q-3.84-12.75-7.71-25.47Q236,340.4,234,334c-.66-2.14-1.31-4.28-2-6.42s-1.4-4.16-2-6.27c-.24-.86-.37-.39-.06.7.62,2.2,1.23,4.4,1.87,6.59q1.91,6.51,3.84,13,3.83,12.94,7.72,25.88c1.3,4.32,2.61,8.64,3.9,13a54.34,54.34,0,0,1,1.6,6.27,29,29,0,0,1,.26,6.71c-.29,4.51-.81,9-1.23,13.5s-.83,9-1.25,13.52q-1.24,13.45-2.46,26.91c-.11,1.13-.21,2.27-.29,3.41,0,.38.54.35.58,0,1-8.86,1.72-17.76,2.55-26.64s1.66-17.67,2.48-26.51c.21-2.22.45-4.44.45-6.67A27.46,27.46,0,0,0,249.28,384.84Z" style="fill:#37474f"></path><path d="M246.84,314.65c-1.74,13.41-5,38.55-7.45,56.79-5.63-22.1-14.69-56.79-14.69-56.79Z" style="fill:#37474f"></path><path d="M253,474.16c-1.44.47-42.34.09-43.89-.91-.59-.38-.88-6.34-1-13.56v-.22c0-1.49-.06-3-.07-4.57,0-.22,0-.43,0-.64-.09-10.42.66-21.22.66-21.22l26.73.17-.74,21,0,.83-.15,4.35v.45S250,467,251.6,468.3,254.4,473.7,253,474.16Z" style="fill:#ad6359"></path><path d="M253,474.16c-1.44.47-42.34.09-43.89-.91-.59-.38-.88-6.34-1-13.56v-.22c0-1.49-.06-3-.07-4.57,0-.22,0-.43,0-.64l26.65,0,0,.83-.15,4.35v.45S250,467,251.6,468.3,254.4,473.7,253,474.16Z" style="fill:#ebebeb"></path><path d="M253.44,474.31c-1.45.46-42.91-.09-44.48-1.11-.6-.38-.87-6.43-1-13.74l26.73.28s15.78,7.31,17.38,8.61S254.9,473.84,253.44,474.31Z" style="fill:#FD653E"></path><path d="M252.87,472.64c-7-.26-35-.67-41.88-.4-.06,0-.06,0,0,0,6.88.41,34.93.59,41.88.47C253,472.75,253,472.65,252.87,472.64Z" style="fill:#263238"></path><path d="M249.44,466.83a5.57,5.57,0,0,0-4.18,1.64,5.4,5.4,0,0,0-1.61,3.69s.08,0,.09,0a6.46,6.46,0,0,1,5.69-5.25C249.49,466.91,249.49,466.83,249.44,466.83Z" style="fill:#263238"></path><path d="M237.39,460.47c-2.78-.08-6,.86-7.78,3.11-.07.09.06.19.14.14a38.92,38.92,0,0,1,7.68-2.91A.17.17,0,0,0,237.39,460.47Z" style="fill:#263238"></path><path d="M239.53,461.33c-2.79-.07-6,.87-7.78,3.12-.07.09.05.18.14.14a38.07,38.07,0,0,1,7.68-2.91A.18.18,0,0,0,239.53,461.33Z" style="fill:#263238"></path><path d="M241.66,462.2c-2.78-.08-6,.86-7.78,3.11-.06.09.06.19.14.15a38.42,38.42,0,0,1,7.69-2.92A.17.17,0,0,0,241.66,462.2Z" style="fill:#263238"></path><path d="M243.8,463.06c-2.78-.07-6,.87-7.78,3.12-.07.09.06.18.14.14a38.3,38.3,0,0,1,7.68-2.91A.18.18,0,0,0,243.8,463.06Z" style="fill:#263238"></path><path d="M212.85,465.66c-3.12,0-3.18,4.82,0,4.85S216,465.69,212.85,465.66Z" style="fill:#263238"></path><path d="M240.49,453.08c-1.39-1.18-3.18-.07-4.06,1.14a14.51,14.51,0,0,0-2.62,7.08c0,.05,0,.08.08.08a.34.34,0,0,0,.5.23c2-1.35,4.3-2.53,5.83-4.45C241.11,456,241.81,454.21,240.49,453.08ZM237,459c-1,.69-2,1.32-2.9,2,.52-1.38,1-2.78,1.62-4.1a16.22,16.22,0,0,1,1-1.87c.62-.91,3.38-3.19,3.62-.16C240.51,456.53,238.16,458.13,237,459Z" style="fill:#263238"></path><path d="M226.88,462.24c2.42.4,4.93-.26,7.31-.59a.35.35,0,0,0,.22-.51.08.08,0,0,0,0-.12,14.71,14.71,0,0,0-6.69-3.51c-1.46-.3-3.54.07-3.78,1.88S225.47,462,226.88,462.24Zm-1.66-1.61c-1.85-2.41,1.74-2.56,2.8-2.29a15.5,15.5,0,0,1,2,.69,42.67,42.67,0,0,1,4,2c-1.18.1-2.34.29-3.52.43C229.07,461.58,226.24,462,225.22,460.63Z" style="fill:#263238"></path><path d="M248.86,314.65s-.57,12-3.31,21.41c-.22.78-.45,1.55-.71,2.29a44.06,44.06,0,0,0-7.2,3.7s-.28,9.61-.57,20.33c-.32,12-.65,25.34-.58,28.18.25,10.6-1.33,68.92-1.33,68.92l-29.45.12s5.32-65.13,5.28-69c-.05-6.25,1.43-33.85,2.58-54,.7-12.4,1.27-22,1.27-22Z" style="fill:#263238"></path><path d="M234.15,454.24c-4.5-.07-3.21-.11-7.71-.14-2.2,0-16.67-.08-18.73.27,0,0,0,.09,0,.1,2.06.33,16.53.14,18.73.11,4.5-.06,3.21-.09,7.71-.21A.07.07,0,0,0,234.15,454.24Z" style="fill:#37474f"></path><path d="M217.32,318.92c-.55,16.43-1.12,32.86-1.85,49.29s-1.74,33-3.11,49.4c-.78,9.18-1.5,22.1-2.49,31.27,0,.06.08.08.09,0,2.15-16.3,3.34-36.46,4.4-52.86s1.77-32.83,2.33-49.25c.31-9.3.55-18.59.83-27.88C217.53,318.78,217.32,318.79,217.32,318.92Z" style="fill:#37474f"></path><path d="M246.06,337.64a54,54,0,0,0-8.42,4.41.1.1,0,0,0,.09.17c2.84-1.38,5.74-2.71,8.51-4.25A.19.19,0,0,0,246.06,337.64Z" style="fill:#37474f"></path><path d="M246.23,327.5c-.2,1.05-.45,2.08-.68,3.12s-.36,2-.62,2.94a4.94,4.94,0,0,1-1.37,2.46c-.38.36-.81.68-1.21,1-.22.18-.46.35-.69.52,0-.13.05-.27.08-.42.07-.39.14-.79.2-1.19.15-.88.29-1.76.43-2.65.26-1.73.51-3.49.87-5.21,0-.07-.09-.1-.11,0-.43,1.71-.91,3.39-1.29,5.11-.18.85-.84,5-.87,5.3s-.06.61-.07.92a3.62,3.62,0,0,0,0,.93c0,.08.11.06.14,0h0a3.64,3.64,0,0,0,.26-.91c.08-.3.15-.6.2-.9,0-.11,0-.22.05-.33.41-.25.79-.58,1.17-.86s.84-.59,1.23-.92a4.68,4.68,0,0,0,1.49-2.33,16.8,16.8,0,0,0,.49-3c.14-1.18.23-2.37.4-3.55C246.35,327.46,246.24,327.43,246.23,327.5Z" style="fill:#37474f"></path><path d="M253.07,323.6c-.64.69-40.51,2-40.72,1.74-.56-.69,7-39.87,16.8-50.76,3.76-4.16,10.92-1.88,11.62-1C247.57,282,253.62,323,253.07,323.6Z" style="fill:#FD653E"></path><path d="M227.29,276.69c-6.25,7.83-18.08,27.79-15.27,32.72,3.78,6.65,17.52,16.16,22.19,17.55,2,.6,9.26-14.25,7.36-15.46-2.28-1.44-14.94-9.34-14.87-10.15S230,291,231.61,282.6C233.44,272.9,230.72,272.38,227.29,276.69Z" style="fill:#ad6359"></path><path d="M238.19,311.19s6.39-.18,10.58-.1c2.33,0,6.33.47,8,1.29,2.54,1.22,12.4,8,10.82,10.39-1.43,2.19-9.17-4.67-9.17-4.67s8.42,6.23,6.21,8.56-9.92-6.59-9.92-6.59,8.51,6.6,5.85,8.64c-2,1.54-9.45-6.14-9.45-6.14s7.27,5.72,5.28,7.4c-2.21,1.85-9.52-4.81-9.52-4.81-5.8,3.4-10,2.64-12.84,1.76C233.37,326.7,238.19,311.19,238.19,311.19Z" style="fill:#ad6359"></path><path d="M255.68,315.76c1,.69,2.05,1.39,3,2.17s1.87,1.61,2.74,2.48a21.76,21.76,0,0,1,3.08,3.7,45.13,45.13,0,0,0-6.05-5.92c-.94-.78-1.85-1.62-2.8-2.4A0,0,0,1,1,255.68,315.76Z" style="fill:#263238"></path><path d="M252.79,319.13c1.25.95,2.54,1.84,3.75,2.84s2.28,2,3.41,3.13c.09.08,0,.1-.07,0-1.18-1-2.36-1.89-3.55-2.91s-2.34-2.08-3.57-3C252.74,319.15,252.77,319.12,252.79,319.13Z" style="fill:#263238"></path><path d="M249.78,321.59a34.61,34.61,0,0,1,5.41,4.78c.09.09,0,.1-.1,0-1.77-1.63-3.15-2.91-5.36-4.73C249.7,321.63,249.74,321.56,249.78,321.59Z" style="fill:#263238"></path><path d="M239.79,309.09,232.15,328s-18.82-13.58-21.15-18.3,8.44-23.84,13.35-30.5c5.19-7,9-7.72,7.94,1.1-.23,1.88-4.95,21-4.42,21.53S239.79,309.09,239.79,309.09Z" style="fill:#FD653E"></path><path d="M235.22,308.63c-.24.5-.51,1-.74,1.48s-.44,1-.65,1.47c-.42,1-.83,2-1.25,3-.83,2-1.65,4-2.41,6.08l-.65,1.74a11.46,11.46,0,0,0-.57,1.68,0,0,0,0,0,.07,0,12,12,0,0,0,.72-1.49l.65-1.47c.44-1,.87-2,1.28-3,.83-2,1.64-4,2.43-6l.66-1.74c.22-.58.38-1.18.58-1.77C235.37,308.61,235.26,308.54,235.22,308.63Z" style="fill:#263238"></path><path d="M228.1,325c-2.47-1.65-4.8-3.46-7.13-5.3-1.14-.94-2.29-1.88-3.39-2.86a33.35,33.35,0,0,1-3.17-3.12c1.11,1,2.26,1.9,3.41,2.83l3.46,2.76C223.57,321.18,225.88,323,228.1,325Z" style="fill:#263238"></path><path d="M239.79,309.09c-2.27-1.2-4.52-2.43-6.75-3.72-1.12-.63-2.21-1.3-3.31-2-.55-.35-1.09-.68-1.63-1.07l-.2-.14-.23-.24a1.32,1.32,0,0,1,0-.61c0-.33.07-.66.12-1,.46-2.55,1-5.05,1.59-7.56s1.2-5,1.87-7.47q-.72,3.78-1.5,7.56c-.5,2.51-1.05,5-1.46,7.54-.06.32-.11.63-.14.94s0,.24,0,.33l.11.11.19.13c.5.37,1.05.72,1.58,1.06l3.27,2Z" style="fill:#263238"></path><path d="M230.11,290.21a20,20,0,0,1,1.38-2.88,5.36,5.36,0,0,1-.52,1.52A7.78,7.78,0,0,1,230.11,290.21Z" style="fill:#263238"></path><path d="M238.62,280.07c-2.27.46-6-3.11-7.45-5.95a44.64,44.64,0,0,1,.59-4.66c.19-1.49.36-3.16.41-4.69,0-.31,9.53,2.65,9.53,2.65a24.4,24.4,0,0,0-1.12,5.86,4.26,4.26,0,0,0,0,.63.31.31,0,0,1,0,.1C240.79,275.21,240.82,279.63,238.62,280.07Z" style="fill:#ad6359"></path><path d="M232.76,264.83c.36,2.6,1.76,8.92,6.89,9.2a5.25,5.25,0,0,0,1,0,.16.16,0,0,0,0-.1,3.23,3.23,0,0,1,0-.63,24.4,24.4,0,0,1,1.12-5.86S234.84,265.28,232.76,264.83Z" style="fill:#263238"></path><path d="M232.74,252.48c-1.6,3.19-1.5,13.19.51,15.77,2.92,3.74,8.54,5,11.92,1.31s2.93-16.63.6-19.06C242.34,246.93,235.11,247.78,232.74,252.48Z" style="fill:#ad6359"></path><path d="M240.24,259.65s-.06,0-.06.06c0,.68-.06,1.45-.67,1.68,0,0,0,0,0,0C240.26,261.32,240.37,260.29,240.24,259.65Z" style="fill:#263238"></path><path d="M239.63,259c-1.08-.08-1.16,2.1-.15,2.17S240.54,259,239.63,259Z" style="fill:#263238"></path><path d="M244.1,259.91s.05,0,.05.06c-.05.68,0,1.45.62,1.7a0,0,0,0,1,0,0C244,261.58,244,260.54,244.1,259.91Z" style="fill:#263238"></path><path d="M244.72,259.23c1.09-.05,1.1,2.13.09,2.17S243.81,259.27,244.72,259.23Z" style="fill:#263238"></path><path d="M238.81,257.93c.29-.07.56-.18.85-.27a1.54,1.54,0,0,0,.82-.44.47.47,0,0,0-.06-.56,1.16,1.16,0,0,0-1.15-.16,1.68,1.68,0,0,0-1,.7A.49.49,0,0,0,238.81,257.93Z" style="fill:#263238"></path><path d="M245.6,258.16c-.3-.06-.56-.16-.86-.25a1.46,1.46,0,0,1-.82-.43.45.45,0,0,1,.05-.56,1.14,1.14,0,0,1,1.14-.17,1.65,1.65,0,0,1,1,.67A.49.49,0,0,1,245.6,258.16Z" style="fill:#263238"></path><path d="M239.13,265.85c.16.17.31.39.55.42a1.65,1.65,0,0,0,.73-.15s.05,0,0,0a.93.93,0,0,1-.87.34.75.75,0,0,1-.51-.62S239.11,265.83,239.13,265.85Z" style="fill:#263238"></path><path d="M239.91,263.86a2.25,2.25,0,0,0,1.49,1.07,2.89,2.89,0,0,0,.83.07h.16l.14,0a.16.16,0,0,0,.14-.15h0s0-.05,0-.07h0v-.06c0-.51,0-1.31,0-1.31.19.11,1.14.57,1.13.3a34.79,34.79,0,0,0-.65-7,.07.07,0,0,0-.13,0c0,2.16.32,4.32.33,6.49a3.86,3.86,0,0,0-1.07-.36c-.08,0,.07,1.52,0,1.75a.08.08,0,0,1,0,0,3.18,3.18,0,0,1-2.35-.82C239.92,263.76,239.87,263.8,239.91,263.86Z" style="fill:#263238"></path><path d="M241.93,264.76a2.7,2.7,0,0,1-1.15.76,1.2,1.2,0,0,1-.75,0c-.52-.18-.5-.68-.37-1.09a3.25,3.25,0,0,1,.29-.63A3.51,3.51,0,0,0,241.93,264.76Z" style="fill:#263238"></path><path d="M240.78,265.52a1.2,1.2,0,0,1-.75,0c-.52-.18-.5-.68-.37-1.09A1.27,1.27,0,0,1,240.78,265.52Z" style="fill:#ff9bbc"></path><path d="M231.34,261.85c1.88-.3,3.5-6.28,3.5-6.28s-.31,2.58.18,2.57,2.88-3.28,3.39-5.77a20.11,20.11,0,0,0,4.34,2.78c2.22,1,4.78,1.09,4.82.7.14-1.16-.57-4.32-2-5.58a8.26,8.26,0,0,0-8-2,8,8,0,0,0-6,5.1C230.76,255.23,230.65,262,231.34,261.85Z" style="fill:#263238"></path><path d="M233.45,260.75s-1.72-3.48-3.27-2.92-.59,5.39,1,6.27a1.72,1.72,0,0,0,2.42-.57Z" style="fill:#ad6359"></path><path d="M230.49,259.21a0,0,0,0,0,0,0,4.35,4.35,0,0,1,1.82,3,1,1,0,0,0-1.37-.47s0,.07,0,.06a1,1,0,0,1,1.09.55,4.46,4.46,0,0,1,.41,1c0,.12.24.09.22,0v0C232.92,261.88,232.08,259.6,230.49,259.21Z" style="fill:#263238"></path><path d="M242.44,248.25a14.14,14.14,0,0,0-3.81-1.63c-1.5-.37-6.37-.53-7.63.31s-2.09,5.38-2.2,6-.27,4.75,1.08,5.89,2.26-5.72,4.81-7.74S242.44,248.25,242.44,248.25Z" style="fill:#FD653E"></path><path d="M242.44,248.25s-5.19.85-7.75,2.87-3.47,8.87-4.81,7.74a3.26,3.26,0,0,1-1-2.28,17,17,0,0,1,3.6-7c1.79-1.84,4.58-2.56,7.48-2.57A15.66,15.66,0,0,1,242.44,248.25Z" style="opacity:0.1"></path><path d="M229.81,263c.34-1.82,2.74-6.51,5-9.1s8.14-3.59,8.94-3.45c1.92.33,2.51,1,2.83.85s-1.5-1.83-2-2.22a7.58,7.58,0,0,0-2.73-1.4c-.84-.07-6.09-.14-8.23,1.88s-5.51,8-5.2,9.6c.07.4.55.7.65,1.27.13.73.19,1.57.35,2.1S229.78,263.14,229.81,263Z" style="fill:#FD653E"></path><path d="M235.4,252.67a9,9,0,0,1-1.15-1.07,6.64,6.64,0,0,1-.95-1.28s-.07,0-.05,0a4.85,4.85,0,0,0,.83,1.4,4.3,4.3,0,0,0,1.27,1C235.4,252.79,235.44,252.71,235.4,252.67Z" style="fill:#263238"></path><path d="M230,261.15c0-.14-.11-.27-.15-.4a1.91,1.91,0,0,1-.12-.47,3.91,3.91,0,0,0-.11-.91,2.82,2.82,0,0,0-.36-.66,1.26,1.26,0,0,1-.27-.79,0,0,0,0,0-.06,0,3.16,3.16,0,0,0,.45,1.48,6.43,6.43,0,0,1,.14,1,1.5,1.5,0,0,0,.39.82A.06.06,0,0,0,230,261.15Z" style="fill:#263238"></path><path d="M230.85,259.24c-.15-.23-.31-.44-.44-.68a5.92,5.92,0,0,1-.31-.73c-.09-.24-.16-.49-.24-.74s-.23-.58-.32-.87c0,0-.06,0,0,0,.08.31.12.63.2.94a5.61,5.61,0,0,0,.26.79,4.68,4.68,0,0,0,.35.71,2.1,2.1,0,0,0,.53.58S230.86,259.26,230.85,259.24Z" style="fill:#263238"></path><path d="M231.72,257.53a5.33,5.33,0,0,1-.87-1.24c-.21-.44-.4-.9-.59-1.36,0,0-.07,0-.06,0a6.22,6.22,0,0,0,.47,1.46,3.2,3.2,0,0,0,.4.63,3.79,3.79,0,0,0,.6.53S231.74,257.55,231.72,257.53Z" style="fill:#263238"></path><path d="M232.63,255.89a1.9,1.9,0,0,1-.43-.54c-.13-.22-.26-.45-.38-.68l-.36-.66a1.94,1.94,0,0,1-.25-.71s-.05,0-.06,0a2.06,2.06,0,0,0,.13.74,5.13,5.13,0,0,0,.33.76,6.33,6.33,0,0,0,.44.7,1.23,1.23,0,0,0,.54.47S232.67,255.92,232.63,255.89Z" style="fill:#263238"></path><path d="M233.4,253.78c-.15-.19-.3-.37-.44-.57s-.26-.4-.38-.6-.26-.43-.37-.65c0,0-.07,0-.06,0a4.07,4.07,0,0,0,.64,1.35,4.92,4.92,0,0,0,.44.58,1.76,1.76,0,0,0,.54.48s.07,0,.06,0A4,4,0,0,0,233.4,253.78Z" style="fill:#263238"></path><path d="M236.91,251.79a6.93,6.93,0,0,0-.48-.72,7.21,7.21,0,0,0-.58-.66,7.69,7.69,0,0,0-1.3-1.12s-.07,0,0,0c.77.84,1.58,1.65,2.35,2.49C236.89,251.85,236.93,251.82,236.91,251.79Z" style="fill:#263238"></path><path d="M238.19,250.34a3.44,3.44,0,0,0-.55-.65,8.31,8.31,0,0,0-1.46-1.05,0,0,0,0,0,0,.05c.44.36.88.73,1.29,1.12a5.67,5.67,0,0,1,.59.61c.19.21.32.46.49.69,0,0,0,0,0,0A2.17,2.17,0,0,0,238.19,250.34Z" style="fill:#263238"></path><path d="M239.78,249.8a4,4,0,0,0-.5-.66,4.69,4.69,0,0,0-1.24-.93s-.06,0,0,0a9.63,9.63,0,0,1,1.15,1.06c.18.19.34.39.51.59a7.42,7.42,0,0,0,.49.62s0,0,0,0A3.85,3.85,0,0,0,239.78,249.8Z" style="fill:#263238"></path><path d="M241,249c-.17-.18-.36-.35-.54-.51a2.23,2.23,0,0,0-.59-.43s0,0,0,.05c.34.34.67.69,1,1a6.92,6.92,0,0,1,.74,1.11s0,0,0,0A2.35,2.35,0,0,0,241,249Z" style="fill:#263238"></path><path d="M242.38,248.87a3.78,3.78,0,0,0-1.13-.9s-.06,0,0,.05a4.84,4.84,0,0,1,1,1,6.64,6.64,0,0,1,.75,1.19s0,0,0,0A3.09,3.09,0,0,0,242.38,248.87Z" style="fill:#263238"></path><path d="M244.07,249.89c0-.1-.08-.2-.12-.3a3.84,3.84,0,0,0-.35-.54,6.81,6.81,0,0,0-.94-.92s-.07,0,0,.05a5.11,5.11,0,0,1,.87.93,4.32,4.32,0,0,1,.34.53c0,.09.09.19.13.28a2.36,2.36,0,0,0,.12.28,0,0,0,0,0,0,0A.75.75,0,0,0,244.07,249.89Z" style="fill:#263238"></path><path d="M245.15,250.11a3.4,3.4,0,0,0-.28-.45c-.11-.14-.22-.28-.34-.41l-.37-.39a0,0,0,1,0,0,0,5,5,0,0,1,.34.43l.29.42.3.42a4.15,4.15,0,0,0,.3.43s.05,0,0,0A2.08,2.08,0,0,0,245.15,250.11Z" style="fill:#263238"></path></g><g id="freepik--hot-air-balloon--inject-285"><path d="M373.74,161.78c-21.8,33.84-70.72,61-77.39,70.2s-7.66,11.52-7.66,11.52H211.31s-1-2.33-7.66-11.52-55.59-36.36-77.39-70.2S101.58,41.51,166.43,26.28C226.93,12.07,241.16,78.4,250,78.4s23.07-66.33,83.57-52.12C398.42,41.51,395.54,127.93,373.74,161.78Z" style="fill:#FD653E"></path><path d="M373.74,161.78c-21.8,33.84-70.72,61-77.39,70.2s-7.66,11.52-7.66,11.52H211.31s-1-2.33-7.66-11.52-55.59-36.36-77.39-70.2S101.58,41.51,166.43,26.28C226.93,12.07,241.16,78.4,250,78.4s23.07-66.33,83.57-52.12C398.42,41.51,395.54,127.93,373.74,161.78Z" style="opacity:0.1"></path><path d="M355.51,161.78c-18.59,33.84-60.3,61-66,70.2S283,243.5,283,243.5H217s-.84-2.33-6.53-11.52-47.4-36.36-66-70.2-21-120.27,34.25-135.5C230.33,12.07,242.46,78.4,250,78.4s19.67-66.33,71.26-52.12C376.55,41.51,374.1,127.93,355.51,161.78Z" style="fill:#FD653E"></path><path d="M355.51,161.78c-18.59,33.84-60.3,61-66,70.2S283,243.5,283,243.5H217s-.84-2.33-6.53-11.52-47.4-36.36-66-70.2-21-120.27,34.25-135.5C230.33,12.07,242.46,78.4,250,78.4s19.67-66.33,71.26-52.12C376.55,41.51,374.1,127.93,355.51,161.78Z" style="opacity:0.05"></path><path d="M336.71,163.42c-15.27,33.16-49.56,59.78-54.23,68.79s-5.37,11.29-5.37,11.29H222.89s-.69-2.28-5.37-11.29-39-35.63-54.23-68.79S146,45.56,191.44,30.64C233.83,16.71,243.81,81.71,250,81.71s16.17-65,58.56-51.07C354,45.56,352,130.25,336.71,163.42Z" style="fill:#FD653E"></path><path d="M315.65,165.28c-11.57,32.39-37.52,58.39-41.06,67.19s-4.06,11-4.06,11H229.47s-.52-2.23-4.06-11-29.49-34.8-41.06-67.19S171.26,50.16,205.67,35.58C237.76,22,245.31,75.47,250,75.47S262.24,22,294.33,35.58C328.74,50.16,327.21,132.88,315.65,165.28Z" style="fill:#FD653E"></path><path d="M315.65,165.28c-11.57,32.39-37.52,58.39-41.06,67.19s-4.06,11-4.06,11H229.47s-.52-2.23-4.06-11-29.49-34.8-41.06-67.19S171.26,50.16,205.67,35.58C237.76,22,245.31,75.47,250,75.47S262.24,22,294.33,35.58C328.74,50.16,327.21,132.88,315.65,165.28Z" style="fill:#fff;opacity:0.2"></path><path d="M299.16,165.28c-8.66,32.39-28.1,58.39-30.75,67.19s-3,11-3,11H234.63s-.39-2.23-3-11-22.09-34.8-30.74-67.19S191,59.16,216.8,44.58c24-13.6,29.69,30.89,33.2,30.89S259.16,31,283.2,44.58C309,59.16,307.82,132.88,299.16,165.28Z" style="fill:#FD653E"></path><path d="M299.16,165.28c-8.66,32.39-28.1,58.39-30.75,67.19s-3,11-3,11H234.63s-.39-2.23-3-11-22.09-34.8-30.74-67.19S191,59.16,216.8,44.58c24-13.6,29.69,30.89,33.2,30.89S259.16,31,283.2,44.58C309,59.16,307.82,132.88,299.16,165.28Z" style="fill:#fff;opacity:0.30000000000000004"></path><path d="M183,24.29h0Z" style="fill:#fff;opacity:0.4"></path><path d="M296.35,232c-6.68,9.19-7.66,11.52-7.66,11.52H211.31s-1-2.33-7.66-11.52Z" style="opacity:0.1"></path><path d="M250,159.71c-92.58,0-138.41-19.51-140.32-20.34a5,5,0,0,1,4-9.17h0c.45.19,46.1,19.51,136.33,19.51s135.88-19.32,136.33-19.51a5,5,0,0,1,4,9.17C388.41,140.2,342.58,159.71,250,159.71Z" style="fill:#FD653E"></path><rect x="195.72" y="216.61" width="3" height="164.06" transform="translate(-29.15 21.45) rotate(-5.8)" style="fill:#37474f"></rect><rect x="220.75" y="297.14" width="164.06" height="3" transform="translate(-24.9 569.72) rotate(-84.21)" style="fill:#37474f"></rect><rect x="180.27" y="215.53" width="139.46" height="3" style="fill:#37474f"></rect><rect x="180.27" y="210.75" width="139.46" height="3" style="fill:#37474f"></rect><polygon points="307.12 370.78 304.66 403.16 299.19 476.07 200.81 476.07 195.34 403.16 192.88 370.78 307.12 370.78" style="fill:#FD653E"></polygon><polygon points="307.12 370.78 304.66 403.16 299.19 476.07 200.81 476.07 195.34 403.16 192.88 370.78 307.12 370.78" style="opacity:0.30000000000000004"></polygon><polygon points="307.12 370.78 304.66 403.16 195.34 403.16 192.88 370.78 307.12 370.78" style="opacity:0.1"></polygon><path d="M198,370.78h2v4.28H193.2l-.19-2.5h5Zm15.68,1.77h-5.84v-1.77h-2v4.27h9.81v-4.28h-2Zm15.69,0h-5.85v-1.77h-2v4.27h9.81v-4.28h-2Zm15.68,0h-5.84v-1.77h-2v4.27h9.81v-4.28h-2Zm15.69,0H254.9v-1.77h-2v4.27h9.81v-4.28h-2Zm15.68,0h-5.84v-1.77h-2v4.27h9.81v-4.28h-2Zm15.69,0h-5.85v-1.77h-2v4.27h9.81v-4.28h-2Zm9.84,0v-1.77h-2v4.27h6.82l.19-2.51Zm0,7.38v-4.87h-9.84v4.87h-5.85v-4.87h-9.84v4.87h-5.84v-4.87h-9.84v4.87H254.9v-4.87h-9.84v4.87h-5.84v-4.87h-9.84v4.87h-5.85v-4.87h-9.84v4.87h-5.84v-4.87H198v4.87h-4.43l.19,2.5H200v-4.89h5.88v4.88h9.81v-4.89h5.87v4.88h9.81v-4.89h5.88v4.88h9.81v-4.89h5.87v4.88h9.81v-4.89h5.88v4.88h9.81v-4.89h5.87v4.88h9.81v-4.89H300v4.88h6.25l.19-2.51Zm0,7.39v-4.88h-9.84v4.88h-5.85v-4.88h-9.84v4.88h-5.84v-4.88h-9.84v4.88H254.9v-4.88h-9.84v4.88h-5.84v-4.88h-9.84v4.88h-5.85v-4.88h-9.84v4.88h-5.84v-4.88H198v4.88h-3.87l.19,2.49H200v-4.88h5.88v4.87h9.81v-4.88h5.87v4.87h9.81v-4.88h5.88v4.87h9.81v-4.88h5.87v4.87h9.81v-4.88h5.88v4.87h9.81v-4.88h5.87v4.87h9.81v-4.88H300v4.87h5.69l.19-2.5Zm0,7.38v-4.88h-9.84v4.88h-5.85v-4.88h-9.84v4.88h-5.84v-4.88h-9.84v4.88H254.9v-4.88h-9.84v4.88h-5.84v-4.88h-9.84v4.88h-5.85v-4.88h-9.84v4.88h-5.84v-4.88H198v4.88H194.7l.19,2.5H200v-4.89h5.88v4.87l7.82,0h2v-4.89h5.87v4.87l7.83,0h2v-4.89h5.88v4.87l7.82,0h2v-4.89h5.87v4.87l7.83,0h2v-4.89h5.88v4.87l7.82,0h2v-4.89h5.87v4.87l7.83,0h2v-4.89H300v4.87h5.13l.19-2.5Zm0,7.38v-4.87h-9.84v4.87h-5.85v-4.87h-9.84v4.87h-5.84v-4.87h-9.84v4.87H254.9v-4.87h-9.84v4.87h-5.84v-4.87h-9.84v4.87h-5.85v-4.87h-9.84v4.87h-5.84v-4.87H198v4.87h-2.75l.08,1.08.11,1.43H200V399.7h5.88v4.88h9.81V399.7h5.87v4.88h9.81V399.7h5.88v4.88h9.81V399.7h5.87v4.88h9.81V399.7h5.88v4.88h9.81V399.7h5.87v4.88h9.81V399.7H300v4.88h4.57l.11-1.42.08-1.08Zm0,7.39v-4.88h-9.84v4.88h-5.85v-4.88h-9.84v4.88h-5.84v-4.88h-9.84v4.88H254.9v-4.88h-9.84v4.88h-5.84v-4.88h-9.84v4.88h-5.85v-4.88h-9.84v4.88h-5.84v-4.88H198v4.88h-2.2L196,412h4v-4.89h5.88V412h9.81v-4.89h5.87V412h9.81v-4.89h5.88V412h9.81v-4.89h5.87V412h9.81v-4.89h5.88V412h9.81v-4.89h5.87V412h9.81v-4.89H300V412h4l.19-2.49Zm0,7.38V412h-9.84v4.88h-5.85V412h-9.84v4.88h-5.84V412h-9.84v4.88H254.9V412h-9.84v4.88h-5.84V412h-9.84v4.88h-5.85V412h-9.84v4.88h-5.84V412H198v4.88h-1.64l.18,2.5H200v-4.89h5.88v4.87l7.82,0h2v-4.89h5.87v4.87l7.83,0h2v-4.89h5.88v4.87l7.82,0h2v-4.89h5.87v4.87l7.83,0h2v-4.89h5.88v4.87l7.82,0h2v-4.89h5.87v4.87l7.83,0h2v-4.89H300v4.87h3.47l.18-2.5Zm0,7.38v-4.87h-9.84v4.87h-5.85v-4.87h-9.84v4.87h-5.84v-4.87h-9.84v4.87H254.9v-4.87h-9.84v4.87h-5.84v-4.87h-9.84v4.87h-5.85v-4.87h-9.84v4.87h-5.84v-4.87H198v4.87h-1.09l.19,2.51H200v-4.89h5.88v4.88h9.81v-4.89h5.87v4.88h9.81v-4.89h5.88v4.88h9.81v-4.89h5.87v4.88h9.81v-4.89h5.88v4.88h9.81v-4.89h5.87v4.88h9.81v-4.89H300v4.88h2.91l.19-2.5Zm0,7.39v-4.88h-9.84v4.88h-5.85v-4.88h-9.84v4.88h-5.84v-4.88h-9.84v4.88H254.9v-4.88h-9.84v4.88h-5.84v-4.88h-9.84v4.88h-5.85v-4.88h-9.84v4.88h-5.84v-4.88H198v4.88h-.53l.18,2.5H200v-4.89h5.88v4.88h9.81v-4.89h5.87v4.88h9.81v-4.89h5.88v4.88h9.81v-4.89h5.87v4.88h9.81v-4.89h5.88v4.88h9.81v-4.89h5.87v4.88h9.81v-4.89H300v4.88h2.36l.18-2.49Zm0,7.38v-4.88h-9.84V439h-5.85v-4.88h-9.84V439h-5.84v-4.88h-9.84V439H254.9v-4.88h-9.84V439h-5.84v-4.88h-9.84V439h-5.85v-4.88h-9.84V439h-5.84v-4.88H198v4.63l.21,2.76H200v-4.89h5.88v4.87l7.82,0h2v-4.89h5.87v4.87l7.83,0h2v-4.89h5.88v4.87l7.82,0h2v-4.89h5.87v4.87l7.83,0h2v-4.89h5.88v4.87l7.82,0h2v-4.89h5.87v4.87l7.83,0h2v-4.89H300v4.87h1.8L302,439Zm-9.84,2.51v4.87h-5.85v-4.87h-9.84v4.87h-5.84v-4.87h-9.84v4.87H254.9v-4.87h-9.84v4.87h-5.84v-4.87h-9.84v4.87h-5.85v-4.87h-9.84v4.87h-5.84v-4.87h-9.63l.55,7.38H200V444h5.88v4.88h9.81V444h5.87v4.88h9.81V444h5.88v4.88h9.81V444h5.87v4.88h9.81V444h5.88v4.88h9.81V444h5.87v4.88h9.81V444H300v4.88h1.25l.55-7.37Zm0,7.38v4.88h-5.85v-4.88h-9.84v4.88h-5.84v-4.88h-9.84v4.88H254.9v-4.88h-9.84v4.88h-5.84v-4.88h-9.84v4.88h-5.85v-4.88h-9.84v4.88h-5.84v-4.88h-9.08l.55,7.38H200v-4.89h5.88v4.88h9.81v-4.89h5.87v4.88h9.81v-4.89h5.88v4.88h9.81v-4.89h5.87v4.88h9.81v-4.89h5.88v4.88h9.81v-4.89h5.87v4.88h9.81v-4.89H300v4.88h.7l.55-7.37Zm0,7.38v4.88h-5.85v-4.88h-9.84v4.88h-5.84v-4.88h-9.84v4.88H254.9v-4.88h-9.84v4.88h-5.84v-4.88h-9.84v4.88h-5.85v-4.88h-9.84v4.88h-5.84v-4.88h-8.53l.56,7.39H200v-4.89h5.88v4.87l7.82,0h2v-4.89h5.87v4.87l7.83,0h2v-4.89h5.88v4.87l7.82,0h2v-4.89h5.87v4.87l7.83,0h2v-4.89h5.88v4.87l7.82,0h2v-4.89h5.87v4.87l7.83,0h2v-4.89H300v4.87h.14l.56-7.37Zm0,7.39v4.87h-5.85v-4.87h-9.84v4.87h-5.84v-4.87h-9.84v4.87H254.9v-4.87h-9.84v4.87h-5.84v-4.87h-9.84v4.87h-5.85v-4.87h-9.84v4.87h-5.84v-4.87h-8l.19,2.49h5.8V471h9.81v-4.89h5.87V471h9.81v-4.89h5.88V471h9.81v-4.89h5.87V471h9.81v-4.89h5.88V471h9.81v-4.89h5.87V471h9.81v-4.89h5.83l.19-2.49Zm0,7.38v4.88h-5.85V471h-9.84v4.88h-5.84V471h-9.84v4.88H254.9V471h-9.84v4.88h-5.84V471h-9.84v4.88h-5.85V471h-9.84v4.88h-5.84V471h-7.42l.19,2.49h5.25v2.54h9.81v-2.54h5.87v2.54h9.81v-2.54h5.88v2.54h9.81v-2.54h5.87v2.54h9.81v-2.54h5.88v2.54h9.81v-2.54h5.87v2.54h9.81v-2.54h5.28l.19-2.49Z" style="opacity:0.05"></path><rect x="187.17" y="361.6" width="125.66" height="18.36" style="fill:#FD653E"></rect><rect x="187.17" y="361.6" width="125.66" height="18.36" style="opacity:0.30000000000000004"></rect><path d="M383.29,139.42a125.74,125.74,0,0,1-11.4,24,74.89,74.89,0,0,1-8,10.73,37.64,37.64,0,0,1-10.52,8.39A19.46,19.46,0,0,1,340,184.44c-4.56-1.15-8.35-4.1-11.4-7.41A54.36,54.36,0,0,1,321,165.9a79.9,79.9,0,0,1-5.35-12.37l2.09,0c-1.51,4.59-3.25,9-5.15,13.47A135.05,135.05,0,0,1,306.17,180,80,80,0,0,1,298,192a41.42,41.42,0,0,1-5.2,5.23,24,24,0,0,1-6.44,3.93,17.17,17.17,0,0,1-3.75,1,15.93,15.93,0,0,1-3.9,0,19.11,19.11,0,0,1-7.28-2.34,33.94,33.94,0,0,1-10.76-10.18A74.59,74.59,0,0,1,253.54,177a101.24,101.24,0,0,1-5-13.66h2.9a101.2,101.2,0,0,1-5,13.66,75,75,0,0,1-7.13,12.71,34,34,0,0,1-10.75,10.19,19.37,19.37,0,0,1-7.29,2.33,15.93,15.93,0,0,1-3.9,0,16.63,16.63,0,0,1-3.75-1,23.57,23.57,0,0,1-6.44-3.93A41.51,41.51,0,0,1,202,192a80.7,80.7,0,0,1-8.17-12A135.14,135.14,0,0,1,187.45,167c-1.9-4.42-3.63-8.87-5.15-13.47h2.11a82.76,82.76,0,0,1-5.35,12.37A55,55,0,0,1,171.4,177c-3,3.32-6.84,6.27-11.4,7.41a19.45,19.45,0,0,1-13.41-1.88,37.46,37.46,0,0,1-10.51-8.39,73.41,73.41,0,0,1-8-10.73,125.18,125.18,0,0,1-11.41-24,130.28,130.28,0,0,0,5.44,12.12,119.85,119.85,0,0,0,6.6,11.49,72.57,72.57,0,0,0,8.11,10.42,36.38,36.38,0,0,0,10.34,7.87,18.23,18.23,0,0,0,12.4,1.55c4.09-1.09,7.6-3.85,10.46-7.06A53,53,0,0,0,177.28,165a80.5,80.5,0,0,0,5-12.09l1-3.15,1.1,3.14a160.3,160.3,0,0,0,11.66,25.83A76.58,76.58,0,0,0,204,190.28c3,3.5,6.5,6.73,10.62,8.35a14.56,14.56,0,0,0,12.62-1.19A31.28,31.28,0,0,0,237,188a71.17,71.17,0,0,0,6.77-12.25,100,100,0,0,0,4.76-13.23l1.45-5.2,1.45,5.2a100,100,0,0,0,4.75,13.23A71.22,71.22,0,0,0,263,188a31.21,31.21,0,0,0,9.77,9.42,14.62,14.62,0,0,0,12.62,1.19c4.12-1.62,7.62-4.86,10.62-8.36a77.38,77.38,0,0,0,8-11.58,160.25,160.25,0,0,0,11.65-25.83l1.1-3.12,1,3.14a79.78,79.78,0,0,0,5,12.08,53,53,0,0,0,7.22,10.84c2.86,3.21,6.36,6,10.46,7.06a15.49,15.49,0,0,0,6.29.33,20.71,20.71,0,0,0,6.11-1.88,36.24,36.24,0,0,0,10.35-7.87A74.51,74.51,0,0,0,371.26,163a121.15,121.15,0,0,0,6.59-11.5A130.28,130.28,0,0,0,383.29,139.42Z" style="fill:#37474f"></path><path d="M382.64,141.69a78.69,78.69,0,0,1-12.25,17.88c-4.9,5.3-10.79,10-17.8,12.33a27,27,0,0,1-10.9,1.3A26.21,26.21,0,0,1,331.18,170a35.86,35.86,0,0,1-8.66-6.79,43.74,43.74,0,0,1-6.53-8.88l1.3,0a84.74,84.74,0,0,1-6.06,9.41,73.85,73.85,0,0,1-7.29,8.52,50.38,50.38,0,0,1-8.76,7.08,30,30,0,0,1-10.54,4.24,26.38,26.38,0,0,1-11.39-.6,30.63,30.63,0,0,1-10.18-5.09,42.93,42.93,0,0,1-8-8,51.09,51.09,0,0,1-6-9.63h1.84A51.57,51.57,0,0,1,245,169.9a43,43,0,0,1-8,8A30.63,30.63,0,0,1,226.75,183a26.38,26.38,0,0,1-11.39.6,29.86,29.86,0,0,1-10.54-4.24,49.92,49.92,0,0,1-8.76-7.08,73.85,73.85,0,0,1-7.29-8.52,86.28,86.28,0,0,1-6.07-9.41l1.31,0a43.5,43.5,0,0,1-6.42,8.76,36.27,36.27,0,0,1-8.48,6.76,26.71,26.71,0,0,1-10.31,3.36,27.19,27.19,0,0,1-10.77-1c-7-2.1-12.9-6.6-17.78-11.78a73.34,73.34,0,0,1-12.1-17.59,74,74,0,0,0,5.63,9.06,69.5,69.5,0,0,0,6.83,8.18c4.94,5,10.88,9.35,17.67,11.25a26.89,26.89,0,0,0,10.4.85,25.51,25.51,0,0,0,9.83-3.34,39.53,39.53,0,0,0,14.19-15.13l.64-1.18.66,1.16A83,83,0,0,0,197.26,171a48.46,48.46,0,0,0,8.48,6.8,28.24,28.24,0,0,0,9.93,4,24.63,24.63,0,0,0,10.59-.61,28.87,28.87,0,0,0,9.53-4.82,46,46,0,0,0,13.29-16.88l.93-1.95.91,1.95a49,49,0,0,0,5.65,9.23,40.7,40.7,0,0,0,7.64,7.65,28.78,28.78,0,0,0,9.53,4.82,24.47,24.47,0,0,0,10.59.61,28.24,28.24,0,0,0,9.93-4,48.46,48.46,0,0,0,8.48-6.8A83,83,0,0,0,316,153.6l.67-1.16.63,1.18a42.39,42.39,0,0,0,6.2,8.63,34.79,34.79,0,0,0,8.26,6.65,25.14,25.14,0,0,0,10,3.24,26.6,26.6,0,0,0,10.52-1.1c6.85-2.13,12.76-6.64,17.73-11.81a75.45,75.45,0,0,0,6.87-8.35A78.4,78.4,0,0,0,382.64,141.69Z" style="fill:#37474f"></path><path d="M188,151.72a5,5,0,1,1-5-5A5,5,0,0,1,188,151.72Z" style="fill:#37474f"></path><path d="M122.33,139.42a5,5,0,1,1-5-5A5,5,0,0,1,122.33,139.42Z" style="fill:#37474f"></path><path d="M388.32,139.42a5,5,0,1,1-5-5A5,5,0,0,1,388.32,139.42Z" style="fill:#37474f"></path><path d="M322,151.72a5,5,0,1,1-5-5A5,5,0,0,1,322,151.72Z" style="fill:#37474f"></path><path d="M255,159.26a5,5,0,1,1-5-5A5,5,0,0,1,255,159.26Z" style="fill:#37474f"></path><path d="M312.37,369.43a36,36,0,0,1-6.32,8.26,20.18,20.18,0,0,1-8.94,5.29,10.93,10.93,0,0,1-10-2.22,23.14,23.14,0,0,1-6.24-8.44h.68a56.26,56.26,0,0,1-5.76,11,29.45,29.45,0,0,1-4,4.77,13,13,0,0,1-5.42,3.24,9,9,0,0,1-6.29-.77,15.3,15.3,0,0,1-4.81-4.08,35.37,35.37,0,0,1-5.71-11.06h1a35.37,35.37,0,0,1-5.71,11.06,15.19,15.19,0,0,1-4.81,4.08,9,9,0,0,1-6.29.77,13,13,0,0,1-5.42-3.24,28.55,28.55,0,0,1-4-4.77,56.18,56.18,0,0,1-5.76-11h.69a25.51,25.51,0,0,1-6,9,11.69,11.69,0,0,1-4.75,2.71,11,11,0,0,1-5.46-.08,20,20,0,0,1-9.06-5.76,38.73,38.73,0,0,1-6.23-8.77A38.76,38.76,0,0,0,194,378a19.58,19.58,0,0,0,9,5.47,10.77,10.77,0,0,0,5.2,0,11.22,11.22,0,0,0,4.48-2.64,24.75,24.75,0,0,0,5.76-8.83l.34-.84.35.84a57.23,57.23,0,0,0,5.77,10.74,28.45,28.45,0,0,0,3.91,4.62,12.15,12.15,0,0,0,5,3,8.09,8.09,0,0,0,5.66-.73,14.23,14.23,0,0,0,4.48-3.85,34.58,34.58,0,0,0,5.49-10.74l.48-1.48.48,1.48A34.77,34.77,0,0,0,256,385.84a14.37,14.37,0,0,0,4.49,3.85,8.09,8.09,0,0,0,5.66.73,12.15,12.15,0,0,0,5.05-3,28.81,28.81,0,0,0,3.91-4.61,57,57,0,0,0,5.77-10.75l.33-.8.36.79a22.37,22.37,0,0,0,5.94,8.24,11.35,11.35,0,0,0,4.48,2.31,11.79,11.79,0,0,0,5.05-.07,19.68,19.68,0,0,0,8.89-5A35.91,35.91,0,0,0,312.37,369.43Z" style="fill:#37474f"></path><path d="M221.12,372.18a2.35,2.35,0,1,1-2.35-2.35A2.36,2.36,0,0,1,221.12,372.18Z" style="fill:#37474f"></path><path d="M190.42,369.43a2.36,2.36,0,1,1-2.35-2.35A2.35,2.35,0,0,1,190.42,369.43Z" style="fill:#37474f"></path><path d="M314.89,369.43a2.36,2.36,0,1,1-2.36-2.35A2.36,2.36,0,0,1,314.89,369.43Z" style="fill:#37474f"></path><path d="M283.86,372.18a2.36,2.36,0,1,1-2.35-2.35A2.36,2.36,0,0,1,283.86,372.18Z" style="fill:#37474f"></path><path d="M252.35,374.71a2.35,2.35,0,1,1-2.35-2.35A2.35,2.35,0,0,1,252.35,374.71Z" style="fill:#37474f"></path><path d="M198,388.81a8.37,8.37,0,1,1-16.74,0c-.08-3.72,1.86-8.62,6.21-12.91h4.32C196.15,380.19,198.09,385.09,198,388.81Z" style="fill:#FD653E"></path><polygon points="193.96 370.35 191.8 375.9 187.48 375.9 185.32 370.35 193.96 370.35" style="fill:#FD653E"></polygon><polygon points="192.31 374.58 191.8 375.9 187.48 375.9 187.11 374.94 192.31 374.58" style="opacity:0.1"></polygon><path d="M318.55,388.81a8.37,8.37,0,1,1-16.74,0c-.08-3.72,1.86-8.62,6.21-12.91h4.32C316.69,380.19,318.63,385.09,318.55,388.81Z" style="fill:#FD653E"></path><polygon points="314.5 370.35 312.34 375.9 308.02 375.9 305.86 370.35 314.5 370.35" style="fill:#FD653E"></polygon><polygon points="312.85 374.58 312.34 375.9 308.02 375.9 307.65 374.94 312.85 374.58" style="opacity:0.1"></polygon><path d="M227.14,392.06a8.37,8.37,0,1,1-16.74,0c-.08-3.72,1.86-8.62,6.21-12.91h4.32C225.28,383.44,227.22,388.34,227.14,392.06Z" style="fill:#FD653E"></path><polygon points="223.09 373.6 220.93 379.15 216.61 379.15 214.45 373.6 223.09 373.6" style="fill:#FD653E"></polygon><polygon points="221.44 377.83 220.93 379.15 216.61 379.15 216.24 378.19 221.44 377.83" style="opacity:0.1"></polygon><path d="M289.88,392.06a8.37,8.37,0,1,1-16.74,0c-.08-3.72,1.86-8.62,6.21-12.91h4.32C288,383.44,290,388.34,289.88,392.06Z" style="fill:#FD653E"></path><polygon points="285.83 373.6 283.67 379.15 279.35 379.15 277.19 373.6 285.83 373.6" style="fill:#FD653E"></polygon><polygon points="284.18 377.83 283.67 379.15 279.35 379.15 278.98 378.19 284.18 377.83" style="opacity:0.1"></polygon><path d="M258.53,393.7a8.37,8.37,0,1,1-16.74,0c-.08-3.72,1.86-8.62,6.21-12.91h4.32C256.67,385.08,258.61,390,258.53,393.7Z" style="fill:#FD653E"></path><polygon points="254.48 375.24 252.32 380.79 248 380.79 245.84 375.24 254.48 375.24" style="fill:#FD653E"></polygon><polygon points="252.83 379.47 252.32 380.79 248 380.79 247.63 379.83 252.83 379.47" style="opacity:0.1"></polygon></g></svg>